<svg width="540" height="539" viewBox="0 0 540 539" fill="none" xmlns="http://www.w3.org/2000/svg">
<path d="M202.294 141.328C223.931 222.079 225.155 225.617 236.168 241.991C239.584 247.011 240.497 249.389 239.985 251.597C239.139 255.137 237.653 255.259 218.92 254.895L205.685 254.438L127.405 274.999L48.963 295.465L57.2798 326.504L65.5965 357.542L143.797 336.174L221.835 314.712L236.057 306.484C254.57 295.726 255.154 295.845 254.495 312.448C253.901 332.899 254.999 338.54 276.229 416.226L296.285 489.533L326.551 481.423L356.817 473.313L338.568 403.663C319.008 329.119 315.293 317.829 305.285 301.6C298.202 290.108 297.255 287.601 299.589 286.01C300.516 285.347 307.721 284.935 315.683 285.286L330.019 285.724L410.393 264.74L490.604 243.662L482.46 213.267L474.35 183.001L396.561 203.845L318.9 224.654L307.047 231.419C300.482 235.249 293.168 238.865 290.756 239.649C286.411 240.951 286.248 240.857 285.204 236.444C284.677 233.962 284.444 225.881 284.581 218.666L284.909 205.464L270.544 151.338C262.572 121.588 253.022 86.4624 249.176 73.1373L242.336 49.1571L212.199 57.2322L181.934 65.3419L202.294 141.328Z" fill="#816729"/>
</svg>
