<svg width="338" height="284" viewBox="0 0 338 284" fill="none" xmlns="http://www.w3.org/2000/svg">
<path d="M74.1061 155.767V271.139C74.1061 278.017 79.6637 283.571 86.5377 283.571C93.4001 283.571 98.9694 278.017 98.9694 271.139V155.767C98.9694 148.902 93.4001 143.335 86.5377 143.335C79.6637 143.335 74.1061 148.896 74.1061 155.767Z" fill="#512521"/>
<path d="M35.0856 283.712H62.4587V146.735C62.5337 146.078 62.6533 145.423 62.6533 144.75C62.6533 85.6549 110.352 37.5834 168.974 37.5834C227.588 37.5834 275.287 85.6549 275.287 144.75C275.287 145.654 275.419 146.53 275.554 147.403V283.712H302.931C321.984 283.712 337.444 267.722 337.444 247.994V176.562C337.444 160.294 326.907 146.588 312.521 142.275C311.197 63.769 247.335 0.288452 168.979 0.288452C90.6031 0.288452 26.731 63.7749 25.4204 142.306C11.0545 146.625 0.555908 160.319 0.555908 176.574V247.994C0.555908 267.71 16.0143 283.712 35.0856 283.712Z" fill="#512521"/>
<path d="M239.054 155.767V271.139C239.054 278.017 244.62 283.571 251.484 283.571C258.349 283.571 263.915 278.017 263.915 271.139V155.767C263.915 148.902 258.349 143.335 251.484 143.335C244.607 143.335 239.054 148.896 239.054 155.767Z" fill="#512521"/>
</svg>
