<svg width="2087" height="523" viewBox="0 0 2087 523" fill="none" xmlns="http://www.w3.org/2000/svg">
<path d="M1.31201 0.858887L40.312 73.8589C78.312 146.859 155.312 292.859 233.312 323.859C310.312 354.859 387.312 271.859 464.312 198.859C542.312 125.859 619.312 62.8589 696.312 31.8589C773.312 0.858887 850.312 0.858887 928.312 73.8589C1005.31 146.859 1082.31 292.859 1159.31 386.859C1237.31 480.859 1314.31 521.859 1391.31 521.859C1468.31 521.859 1545.31 480.859 1623.31 427.859C1700.31 375.859 1777.31 313.859 1854.31 281.859C1932.31 250.859 2009.31 250.859 2047.31 250.859H2086.31" stroke="#863B32"/>
</svg>
